# Blender 4.1.1
# www.blender.org
mtllib ../obj/default.mtl
o mybox
v -0.302170 0.100202 0.201305
v -0.302170 0.696680 0.201305
v -0.201305 0.100202 -0.302170
v -0.201305 0.696680 -0.302170
v 0.201305 0.100202 0.302170
v 0.201305 0.696680 0.302170
v 0.302170 0.100202 -0.201305
v 0.302170 0.696680 -0.201305
vn -0.9805 -0.0000 -0.1964
vn 0.1964 -0.0000 -0.9805
vn 0.9805 -0.0000 0.1964
vn -0.1964 -0.0000 0.9805
vn -0.0000 -1.0000 -0.0000
vn -0.0000 1.0000 -0.0000
vt 0.375000 0.000000
vt 0.625000 0.000000
vt 0.625000 0.250000
vt 0.375000 0.250000
vt 0.625000 0.500000
vt 0.375000 0.500000
vt 0.625000 0.750000
vt 0.375000 0.750000
vt 0.625000 1.000000
vt 0.375000 1.000000
vt 0.125000 0.500000
vt 0.125000 0.750000
vt 0.875000 0.500000
vt 0.875000 0.750000
s 0
usemtl mybox
f 1/1/1 2/2/1 4/3/1 3/4/1
f 3/4/2 4/3/2 8/5/2 7/6/2
f 7/6/3 8/5/3 6/7/3 5/8/3
f 5/8/4 6/7/4 2/9/4 1/10/4
f 3/11/5 7/6/5 5/8/5 1/12/5
f 8/5/6 4/13/6 2/14/6 6/7/6
o mywall1
v -19.855686 0.000000 19.792789
v 19.855686 0.000000 19.792789
v -19.855686 0.000000 -1.222032
v 19.855686 0.000000 -1.222032
vn -0.0000 1.0000 -0.0000
vt 0.000000 0.000000
vt 1.000000 0.000000
vt 1.000000 1.000000
vt 0.000000 1.000000
s 0
usemtl mywall1
f 9/15/7 10/16/7 12/17/7 11/18/7
o mywall2
v -19.882683 -0.329368 -1.060244
v 19.882683 -0.329368 -1.060244
v -19.882683 10.023787 -1.060244
v 19.882683 10.023787 -1.060244
vn -0.0000 -0.0000 1.0000
vt 0.000000 0.000000
vt 1.000000 0.000000
vt 1.000000 1.000000
vt 0.000000 1.000000
s 0
usemtl mywall2
f 13/19/8 14/20/8 16/21/8 15/22/8
