# Blender 4.1.1
# www.blender.org
mtllib ../obj/hair_one_line.mtl
o hair
v -1.000000 0.362110 -0.000000
v 1.000000 0.362110 -0.000000
l 1 2
o mywall
v -4.450377 -0.090033 5.601082
v -4.450377 2.847594 5.601082
v -4.450377 -0.090033 -1.985374
v -4.450377 2.847594 -1.985374
v 4.450377 -0.090033 5.601082
v 4.450377 2.847594 5.601082
v 4.450377 -0.090033 -1.985374
v 4.450377 2.847594 -1.985374
vn -0.0000 -0.0000 -1.0000
vn -0.0000 -0.0000 1.0000
vn -0.0000 -1.0000 -0.0000
vn -0.0000 1.0000 -0.0000
vn -1.0000 -0.0000 -0.0000
vn 1.0000 -0.0000 -0.0000
vt 0.375000 0.250000
vt 0.625000 0.250000
vt 0.625000 0.500000
vt 0.375000 0.500000
vt 0.375000 0.750000
vt 0.625000 0.750000
vt 0.625000 1.000000
vt 0.375000 1.000000
vt 0.125000 0.500000
vt 0.125000 0.750000
vt 0.875000 0.500000
vt 0.875000 0.750000
vt 0.375000 0.000000
vt 0.625000 0.000000
s 0
usemtl wall1
f 5/1/1 6/2/1 10/3/1 9/4/1
f 7/5/2 8/6/2 4/7/2 3/8/2
usemtl floor
f 5/9/3 9/4/3 7/5/3 3/10/3
f 10/3/4 6/11/4 4/12/4 8/6/4
usemtl wall2
f 3/13/5 4/14/5 6/2/5 5/1/5
f 9/4/6 10/3/6 8/6/6 7/5/6
