# Blender 4.1.1
# www.blender.org
mtllib ../obj/room.mtl
o mybox
v -1.031074 0.004518 -0.762120
v -1.031074 0.600996 -0.762120
v -0.930209 0.004518 -1.265594
v -0.930209 0.600996 -1.265594
v -0.527600 0.004518 -0.661254
v -0.527600 0.600996 -0.661254
v -0.426734 0.004518 -1.164729
v -0.426734 0.600996 -1.164729
vn -0.9805 -0.0000 -0.1964
vn 0.1964 -0.0000 -0.9805
vn 0.9805 -0.0000 0.1964
vn -0.1964 -0.0000 0.9805
vn -0.0000 -1.0000 -0.0000
vn -0.0000 1.0000 -0.0000
vt 0.375000 0.000000
vt 0.625000 0.000000
vt 0.625000 0.250000
vt 0.375000 0.250000
vt 0.625000 0.500000
vt 0.375000 0.500000
vt 0.625000 0.750000
vt 0.375000 0.750000
vt 0.625000 1.000000
vt 0.375000 1.000000
vt 0.125000 0.500000
vt 0.125000 0.750000
vt 0.875000 0.500000
vt 0.875000 0.750000
s 0
usemtl mybox
f 1/1/1 2/2/1 4/3/1 3/4/1
f 3/4/2 4/3/2 8/5/2 7/6/2
f 7/6/3 8/5/3 6/7/3 5/8/3
f 5/8/4 6/7/4 2/9/4 1/10/4
f 3/11/5 7/6/5 5/8/5 1/12/5
f 8/5/6 4/13/6 2/14/6 6/7/6
o mywall
v -3.697233 -0.068799 5.058638
v -3.697233 2.958729 5.058638
v -3.697233 -0.068799 -2.678103
v -3.697233 2.958729 -2.678103
v 3.697233 -0.068799 5.058638
v 3.697233 2.958729 5.058638
v 3.697233 -0.068799 -2.678103
v 3.697233 2.958729 -2.678103
vn -1.0000 -0.0000 -0.0000
vn -0.0000 -0.0000 -1.0000
vn 1.0000 -0.0000 -0.0000
vn -0.0000 -0.0000 1.0000
vn -0.0000 -1.0000 -0.0000
vn -0.0000 1.0000 -0.0000
vt 0.375000 0.000000
vt 0.625000 0.000000
vt 0.625000 0.250000
vt 0.375000 0.250000
vt 0.625000 0.500000
vt 0.375000 0.500000
vt 0.625000 0.750000
vt 0.375000 0.750000
vt 0.625000 1.000000
vt 0.375000 1.000000
vt 0.125000 0.500000
vt 0.125000 0.750000
vt 0.875000 0.500000
vt 0.875000 0.750000
s 0
usemtl wall1
f 11/18/8 12/17/8 16/19/8 15/20/8
f 13/22/10 14/21/10 10/23/10 9/24/10
usemtl floor
f 11/25/11 15/20/11 13/22/11 9/26/11
f 16/19/12 12/27/12 10/28/12 14/21/12
usemtl wall2
f 9/15/7 10/16/7 12/17/7 11/18/7
f 15/20/9 16/19/9 14/21/9 13/22/9
o mybox.001
v 0.938059 -0.000001 -0.172761
v 0.938059 0.596478 -0.172761
v 0.854586 -0.000001 -0.679409
v 0.854586 0.596478 -0.679409
v 1.444708 -0.000001 -0.256234
v 1.444708 0.596478 -0.256234
v 1.361234 -0.000001 -0.762883
v 1.361234 0.596478 -0.762883
vn -0.9867 -0.0000 0.1626
vn -0.1626 -0.0000 -0.9867
vn 0.9867 -0.0000 -0.1626
vn 0.1626 -0.0000 0.9867
vn -0.0000 -1.0000 -0.0000
vn -0.0000 1.0000 -0.0000
vt 0.375000 0.000000
vt 0.625000 0.000000
vt 0.625000 0.250000
vt 0.375000 0.250000
vt 0.625000 0.500000
vt 0.375000 0.500000
vt 0.625000 0.750000
vt 0.375000 0.750000
vt 0.625000 1.000000
vt 0.375000 1.000000
vt 0.125000 0.500000
vt 0.125000 0.750000
vt 0.875000 0.500000
vt 0.875000 0.750000
s 0
usemtl 
f 17/29/13 18/30/13 20/31/13 19/32/13
f 19/32/14 20/31/14 24/33/14 23/34/14
f 23/34/15 24/33/15 22/35/15 21/36/15
f 21/36/16 22/35/16 18/37/16 17/38/16
f 19/39/17 23/34/17 21/36/17 17/40/17
f 24/33/18 20/41/18 18/42/18 22/35/18
